# xmcd CD database file
#
# Track frame offsets:
#	150
#	19130
#	58358
#	124118
#	172136
#	198199
#	223448
#	246173
#	300432
#
# Disc length: 4261 seconds
#
# Revision: 0
# Processed by: cddbd v1.5.2PL0 Copyright (c) Steve Scherf et al.
# Submitted via: CDex 1.70beta2
#
DISCID=8710a309
DTITLE=Mats Rondin - Isidor
DYEAR=2009
DGENRE=Jazz
TTITLE0=Secrets
TTITLE1=Scanian Suite: Open Fields
TTITLE2=Scanian Suite: The Valley
TTITLE3=Scanian Suite: Sounds Of The Sound
TTITLE4=Hopeful
TTITLE5=Isidor Suite
TTITLE6=Psalmen
TTITLE7=Rondin Rave
TTITLE8=Inner Secrets
EXTD=YEAR: 2009
EXTT0=
EXTT1=
EXTT2=
EXTT3=
EXTT4=
EXTT5=
EXTT6=
EXTT7=
EXTT8=
PLAYORDER=
